<svg xmlns="http://www.w3.org/2000/svg" version="1.1" xmlns:xlink="http://www.w3.org/1999/xlink" xmlns:svgjs="http://svgjs.com/svgjs" width="114" height="114"><svg width="114" height="114" viewBox="0 0 114 114" fill="none" xmlns="http://www.w3.org/2000/svg">
<rect x="3.5" y="3.5" width="107" height="107" rx="23.5" fill="#F9F6F2" stroke="#735C4F" stroke-width="7"></rect>
<path d="M23.1136 80V33.4545H30.1364V73.9545H51.2273V80H23.1136ZM59.2386 80V33.4545H76.2841C79.5871 33.4545 82.322 34 84.4886 35.0909C86.6553 36.1667 88.2765 37.6288 89.3523 39.4773C90.428 41.3106 90.9659 43.3788 90.9659 45.6818C90.9659 47.6212 90.6099 49.2576 89.8977 50.5909C89.1856 51.9091 88.2311 52.9697 87.0341 53.7727C85.8523 54.5606 84.5492 55.1364 83.125 55.5V55.9545C84.6705 56.0303 86.178 56.5303 87.6477 57.4545C89.1326 58.3636 90.3598 59.6591 91.3295 61.3409C92.2992 63.0227 92.7841 65.0682 92.7841 67.4773C92.7841 69.8561 92.2235 71.9924 91.1023 73.8864C89.9962 75.7652 88.2841 77.2576 85.9659 78.3636C83.6477 79.4545 80.6856 80 77.0795 80H59.2386ZM66.2614 73.9773H76.3977C79.7614 73.9773 82.1705 73.3258 83.625 72.0227C85.0795 70.7197 85.8068 69.0909 85.8068 67.1364C85.8068 65.6667 85.4356 64.3182 84.6932 63.0909C83.9508 61.8636 82.8902 60.8864 81.5114 60.1591C80.1477 59.4318 78.5265 59.0682 76.6477 59.0682H66.2614V73.9773ZM66.2614 53.5909H75.6705C77.2462 53.5909 78.6629 53.2879 79.9205 52.6818C81.1932 52.0758 82.2008 51.2273 82.9432 50.1364C83.7008 49.0303 84.0795 47.7273 84.0795 46.2273C84.0795 44.303 83.4053 42.6894 82.0568 41.3864C80.7083 40.0833 78.6402 39.4318 75.8523 39.4318H66.2614V53.5909Z" fill="#735C4F"></path>
</svg><style>@media (prefers-color-scheme: light) { :root { filter: none; } }
</style></svg>