<svg width="35" height="45" viewBox="0 0 35 45" fill="none" xmlns="http://www.w3.org/2000/svg">
<path d="M19.7754 34.4531H3.95508C1.77416 34.4531 0 32.679 0 30.498V3.95508C0 1.77416 1.77416 0 3.95508 0H19.7754C21.9563 0 23.7305 1.77416 23.7305 3.95508V30.498C23.7305 32.679 21.9563 34.4531 19.7754 34.4531Z" fill="#333333" fill-opacity="0.5"/>
<path d="M30.3223 10.7227H26.3672V30.498C26.3672 34.1326 23.4099 37.0898 19.7754 37.0898H10.5469V41.0449C10.5469 43.2258 12.321 45 14.502 45H30.3223C32.5032 45 34.2773 43.2258 34.2773 41.0449V14.6777C34.2773 12.4968 32.5032 10.7227 30.3223 10.7227Z" fill="#333333" fill-opacity="0.5"/>
</svg>
