<svg width="45" height="45" viewBox="0 0 45 45" fill="none" xmlns="http://www.w3.org/2000/svg">
<path d="M41.7857 15.6826C41.014 14.933 40.1644 14.2681 39.2513 13.6992C39.1537 13.9717 38.9778 14.2093 38.7458 14.3823C37.4715 15.3036 36.0169 15.945 34.4772 16.2645C34.376 16.2862 34.2731 16.3062 34.1703 16.3255C34.3315 16.5507 34.4262 16.8166 34.4435 17.093C34.4786 17.614 34.2387 18.1155 33.8111 18.415C32.5731 19.2966 31.1712 19.9216 29.6879 20.253L29.377 20.3189C29.8281 20.9568 29.7076 21.8353 29.1013 22.328L26.0775 24.8129C24.7733 25.9089 23.129 26.5177 21.4256 26.5352C20.0588 26.5457 18.7265 26.1054 17.6352 25.2823L16.8549 26.0626L17.7509 26.2418C18.1574 26.3222 18.4362 26.6986 18.3946 27.111C18.353 27.5233 18.0046 27.8364 17.5902 27.8339C17.5362 27.8341 17.4823 27.8288 17.4295 27.8178L15.4832 27.4288L13.4196 29.4926C13.1043 29.7972 12.6031 29.7928 12.2932 29.4828C11.9832 29.1728 11.9789 28.6716 12.2834 28.3563L14.347 26.2925L13.9637 24.346C13.8778 23.9114 14.1598 23.4893 14.5941 23.4023C15.0284 23.3152 15.4512 23.5961 15.5395 24.0302L15.7187 24.9263L16.4997 24.1451C14.6503 21.5475 14.7979 18.0263 16.8581 15.5926L19.1097 12.8537C15.4792 11.4658 8.89152 10.1744 3.21429 15.673V36.392C10.3725 30.5462 18.6196 33.654 21.6964 35.1713V29.7305C21.6964 29.2867 22.0562 28.9269 22.5 28.9269C22.9438 28.9269 23.3036 29.2867 23.3036 29.7305V35.1721C26.378 33.6548 34.6275 30.547 41.7857 36.3928V15.6826Z" fill="#333333" fill-opacity="0.5"/>
<path d="M36.4018 0.143947C35.1842 -0.126396 33.9129 -0.0141277 32.7616 0.465409C31.2846 1.05127 30.0857 2.33873 28.9254 3.58359L28.6843 3.83996C27.3418 5.2751 26.1172 6.81615 25.0224 8.44812C24.4918 9.22105 24.0291 10.0385 23.6395 10.8912C23.0432 12.2392 22.6619 13.6724 22.5096 15.1386C22.4658 15.5362 22.1363 15.8411 21.7365 15.8538C21.3367 15.8665 20.9884 15.5832 20.9194 15.1892C20.8235 14.6894 20.6718 14.202 20.467 13.7362L18.1004 16.6165C16.5661 18.4135 16.3848 21.0017 17.6537 22.9951L24.8167 15.8273L24.5571 11.9215C24.538 11.6344 24.6736 11.3589 24.9126 11.1988C25.1517 11.0387 25.458 11.0183 25.7162 11.1454C25.9744 11.2724 26.1452 11.5275 26.1643 11.8146L26.3306 14.3188L29.5562 11.093L29.1962 5.68355C29.1666 5.2397 29.5025 4.85596 29.9463 4.82645C30.3901 4.79693 30.7738 5.13281 30.8033 5.57666L31.0693 9.58208L34.5455 6.10305C34.8644 5.82999 35.3396 5.84835 35.6364 6.1452C35.9332 6.44204 35.9516 6.91735 35.6786 7.23621L18.7867 24.1331C19.5651 24.6591 20.4846 24.9371 21.424 24.9303C22.7542 24.9135 24.0372 24.4351 25.0537 23.5769L27.937 21.2118C27.4728 21.0094 26.9877 20.859 26.4905 20.7633C26.0964 20.6929 25.8143 20.3431 25.8288 19.943C25.8434 19.5429 26.1502 19.2145 26.5484 19.1729C27.4638 19.0641 28.3729 18.9069 29.2717 18.702C30.5076 18.4314 31.6805 17.927 32.7271 17.216C32.2921 17.0204 31.8436 16.8566 31.3851 16.7258C31.2851 16.7012 31.1882 16.6651 31.0966 16.6181C30.7907 16.4477 30.6303 16.0989 30.7001 15.7557C30.7699 15.4126 31.0538 15.1541 31.402 15.1169C32.3759 15.014 33.3016 14.8758 34.1526 14.6949C35.4007 14.4364 36.5845 13.9309 37.6345 13.2082C37.1668 12.9879 36.6833 12.8031 36.188 12.6553C36.1186 12.6342 36.0505 12.6093 35.9839 12.5805C35.6627 12.4227 35.4845 12.0715 35.5469 11.719C35.6093 11.3666 35.8972 11.0979 36.2531 11.06C37.773 10.9234 39.273 10.6188 40.7258 10.1519C40.8585 10.1111 40.9696 10.0191 41.0344 9.89631C41.4885 9.01962 41.7359 8.05056 41.7576 7.06342C41.841 3.77787 39.6031 0.886515 36.4018 0.143947ZM38.3384 4.58173C38.1086 4.81163 37.7629 4.88043 37.4626 4.75605C37.1623 4.63168 36.9665 4.33862 36.9665 4.01355C36.9665 3.68848 37.1623 3.39542 37.4626 3.27104C37.7629 3.14667 38.1086 3.21547 38.3384 3.44536C38.6514 3.75986 38.6503 4.26857 38.336 4.58173H38.3384Z" fill="#333333" fill-opacity="0.5"/>
<path d="M4.70411 39.3399C11.8856 32.8889 20.8109 38.3048 21.1878 38.5362L21.6964 38.8633V36.9763C19.7679 35.8713 10.9527 31.4504 3.56625 38.2139L4.70411 39.3399Z" fill="#333333" fill-opacity="0.5"/>
<path d="M23.3036 38.8657L23.801 38.5442C24.1674 38.3031 32.9504 32.7201 40.2798 39.3221L41.4273 38.2075C34.1068 31.5323 25.1968 35.9187 23.3036 36.9819V38.8657Z" fill="#333333" fill-opacity="0.5"/>
<path d="M44.2937 17.4917L43.3929 17.3799V38.2035C43.3901 38.4172 43.3035 38.6212 43.1518 38.7717L41.4233 40.4818C40.8091 41.0815 39.8336 41.0971 39.2006 40.5172C32.7793 34.7309 24.9999 39.6822 24.6704 39.8944L23.3662 40.7342C22.8367 41.0749 22.1569 41.0749 21.6273 40.7342L20.3304 39.8968C20.0089 39.6959 12.0737 34.8828 5.79536 40.5204C5.16098 41.0947 4.18999 41.0785 3.57509 40.4834L1.84821 38.7717C1.69655 38.6212 1.60999 38.4171 1.60714 38.2035V17.3799L0.702321 17.4925C0.300257 17.5471 0.000322087 17.8903 0 18.2961V41.7854C0 42.2292 0.359771 42.589 0.803571 42.589H16.875V41.7966C16.875 41.3528 17.2348 40.993 17.6786 40.993C18.1224 40.993 18.4821 41.3528 18.4821 41.7966V43.3927C18.4821 44.0356 20.0845 45 22.5 45C24.9155 45 26.5179 44.0356 26.5179 43.3927V41.7854C26.5179 41.3415 26.8776 40.9817 27.3214 40.9817C27.7652 40.9817 28.125 41.3415 28.125 41.7854V42.589H44.1964C44.6402 42.589 45 42.2292 45 41.7854V18.2945C44.9983 17.8879 44.6967 17.5451 44.2937 17.4917Z" fill="#333333" fill-opacity="0.5"/>
</svg>
