<svg width="45" height="45" viewBox="0 0 45 45" fill="none" xmlns="http://www.w3.org/2000/svg">
<path d="M13.2533 26.3793H10.8621V40.3448H18.7541C19.8124 40.3448 20.8265 40.6187 21.7241 41.1245V28.6471C20.7908 29.1887 19.7309 29.4827 18.6207 29.4827C16.3296 29.4827 14.3286 28.2313 13.2533 26.3793ZM20.1724 38.7931H12.4138V37.2413H20.1724V38.7931ZM20.1724 35.6896H12.4138V34.1379H20.1724V35.6896ZM20.1724 32.5862H12.4138V31.0344H20.1724V32.5862Z" fill="#333333" fill-opacity="0.5"/>
<path d="M15.5172 20.1724H17.069V21.7241H15.5172C15.0921 21.7241 14.6778 21.6807 14.2712 21.6147C14.0703 22.1416 13.9655 22.7072 13.9655 23.2759C13.9655 25.8432 16.0534 27.931 18.6207 27.931C19.7806 27.931 20.8691 27.5066 21.7241 26.7385V1.1925C20.8691 0.424396 19.7806 0 18.6207 0C16.0534 0 13.9655 2.08784 13.9655 4.65517C13.9655 5.23319 14.0679 5.78948 14.2704 6.31629C14.677 6.25034 15.0921 6.2069 15.5172 6.2069H15.6507C16.8587 6.2069 17.9946 5.73672 18.848 4.8825L19.9451 5.97957C19.5455 6.37991 19.0971 6.71276 18.6168 6.98276C19.0971 7.25276 19.5455 7.5856 19.9451 7.98595L18.848 9.08302C17.9938 8.22879 16.8587 7.75862 15.6507 7.75862H15.5172C12.0949 7.75862 9.31034 10.5432 9.31034 13.9655C9.31034 17.3878 12.0949 20.1724 15.5172 20.1724ZM13.9655 11.6379C15.5684 11.6379 17.0356 12.4813 17.8805 13.7979C18.5578 13.4123 19.3391 13.1897 20.1724 13.1897V14.7414C18.4609 14.7414 17.069 16.1333 17.069 17.8448V18.6207H15.5172V17.8448C15.5172 16.6717 15.9572 15.601 16.6764 14.7817C16.1341 13.8134 15.0967 13.1897 13.9655 13.1897V11.6379Z" fill="#333333" fill-opacity="0.5"/>
<path d="M34.1379 40.3448V26.3793H31.7467C30.6714 28.2313 28.6712 29.4827 26.3793 29.4827C25.2691 29.4827 24.2092 29.1887 23.2759 28.6471V41.1238C24.1735 40.6187 25.1876 40.3448 26.2459 40.3448H34.1379ZM27.931 31.0344H32.5862V32.5862H27.931V31.0344ZM24.8276 31.0344H26.3793V32.5862H24.8276V31.0344ZM24.8276 34.1379H32.5862V35.6896H24.8276V34.1379ZM24.8276 37.2413H32.5862V38.7931H24.8276V37.2413Z" fill="#333333" fill-opacity="0.5"/>
<path d="M31.0345 23.2759C31.0345 22.6978 30.9321 22.1416 30.7296 21.6147C30.323 21.6807 29.9079 21.7241 29.4828 21.7241H27.931V20.1724H29.4828C32.9051 20.1724 35.6897 17.3878 35.6897 13.9655C35.6897 10.5432 32.9051 7.75862 29.4828 7.75862H29.3493C28.1413 7.75862 27.0054 8.22879 26.152 9.08302L25.0549 7.98595C25.4545 7.5856 25.9029 7.25276 26.3832 6.98276C25.9029 6.71276 25.4545 6.37991 25.0549 5.97957L26.152 4.8825C27.0062 5.73672 28.1413 6.2069 29.3493 6.2069H29.4828C29.9079 6.2069 30.323 6.25034 30.7296 6.31629C30.9321 5.78948 31.0345 5.23319 31.0345 4.65517C31.0345 2.08784 28.9466 0 26.3793 0C25.2209 0 24.1301 0.418966 23.2759 1.18552V26.7385C24.1309 27.5066 25.2194 27.931 26.3793 27.931C28.9466 27.931 31.0345 25.8432 31.0345 23.2759ZM24.8276 13.1897C25.6609 13.1897 26.4422 13.4123 27.1195 13.7979C27.9644 12.4813 29.4316 11.6379 31.0345 11.6379V13.1897C29.9033 13.1897 28.866 13.8134 28.3236 14.7817C29.0428 15.601 29.4828 16.6717 29.4828 17.8448V18.6207H27.931V17.8448C27.931 16.1333 26.5391 14.7414 24.8276 14.7414V13.1897Z" fill="#333333" fill-opacity="0.5"/>
<path d="M0 4.65515H4.65517V23.2758H0V4.65515Z" fill="#333333" fill-opacity="0.5"/>
<path d="M37.2414 13.9655C37.2414 14.497 37.1871 15.0161 37.0847 15.5173H38.7931V12.4138H37.0847C37.1871 12.915 37.2414 13.4341 37.2414 13.9655Z" fill="#333333" fill-opacity="0.5"/>
<path d="M7.75862 13.9655C7.75862 13.4341 7.81293 12.915 7.91535 12.4138H6.2069V15.5173H7.91535C7.81293 15.0161 7.75862 14.497 7.75862 13.9655Z" fill="#333333" fill-opacity="0.5"/>
<path d="M40.3448 4.65515H45V23.2758H40.3448V4.65515Z" fill="#333333" fill-opacity="0.5"/>
<path d="M35.6897 40.3448C35.6897 41.2006 34.9937 41.8965 34.1379 41.8965H26.2459C25.0378 41.8965 23.902 42.3667 23.0485 43.2209L22.5 43.7703L21.9515 43.2209C21.0972 42.3667 19.9622 41.8965 18.7541 41.8965H10.8621C10.0063 41.8965 9.31035 41.2006 9.31035 40.3448V27.931H7.75862V43.4483H19.7178L20.3997 44.1303C20.9529 44.6827 21.7179 45 22.5 45C23.2821 45 24.0471 44.6827 24.6003 44.1303L25.2822 43.4483H37.2414V27.931H35.6897V40.3448Z" fill="#333333" fill-opacity="0.5"/>
</svg>
